<?xml version="1.0" encoding="UTF-8"?>
<svg width="1440px" height="1024px" viewBox="0 0 1440 1024" version="1.1" xmlns="http://www.w3.org/2000/svg" xmlns:xlink="http://www.w3.org/1999/xlink">
    <!-- Generator: Sketch 63.1 (92452) - https://sketch.com -->
    <title>Desktop HD</title>
    <desc>Created with Sketch.</desc>
    <g id="Desktop-HD" stroke="none" stroke-width="1" fill="none" fill-rule="evenodd">
        <rect fill="#333131" x="0" y="0" width="1440" height="1024"></rect>
        <g id="background" transform="translate(-5.000000, -3.000000)" stroke="#979797">
            <circle id="Oval" fill="#D8D8D8" cx="324.5" cy="192.5" r="44"></circle>
            <circle id="Oval-Copy-26" fill="#FEB300" cx="643.5" cy="381.5" r="224"></circle>
            <circle id="Oval-Copy-25" fill-opacity="0.5" fill="#335F89" cx="595" cy="333" r="154.5"></circle>
            <circle id="Oval-Copy-5" fill="#D8D8D8" cx="935.5" cy="163.5" r="36"></circle>
            <circle id="Oval-Copy-15" fill-opacity="0.5" fill="#995454" cx="742.5" cy="192.5" r="57"></circle>
            <circle id="Oval-Copy-23" fill="#D8D8D8" cx="446.5" cy="692.5" r="36"></circle>
            <circle id="Oval-Copy-8" fill="#D8D8D8" cx="913.5" cy="302.5" r="86"></circle>
            <circle id="Oval-Copy-11" fill-opacity="0.5" fill="#FF5E6C" cx="892.5" cy="796.5" r="91"></circle>
            <circle id="Oval-Copy-27" fill="#D8D8D8" cx="1049.5" cy="717.5" r="91"></circle>
            <circle id="Oval-Copy-35" fill="#D8D8D8" cx="200.5" cy="387.5" r="91"></circle>
            <circle id="Oval-Copy-12" fill="#D8D8D8" cx="936" cy="676" r="28.5"></circle>
            <circle id="Oval-Copy-17" fill="#D8D8D8" cx="715" cy="779" r="20.5"></circle>
            <circle id="Oval-Copy-18" fill="#D8D8D8" cx="404.5" cy="839.5" r="25"></circle>
            <circle id="Oval-Copy-36" fill="#D8D8D8" cx="1185.5" cy="363.5" r="25"></circle>
            <circle id="Oval-Copy-37" fill="#D8D8D8" cx="1211.5" cy="381.5" r="25"></circle>
            <circle id="Oval-Copy-19" fill="#D8D8D8" cx="440" cy="476" r="11.5"></circle>
            <circle id="Oval-Copy-20" fill="#D8D8D8" cx="1073" cy="652" r="7.5"></circle>
            <circle id="Oval-Copy-24" fill="#D8D8D8" cx="352" cy="796" r="11.5"></circle>
            <circle id="Oval-Copy-33" fill="#D8D8D8" cx="340" cy="876" r="11.5"></circle>
            <circle id="Oval-Copy-28" fill="#D8D8D8" cx="1044" cy="651" r="11.5"></circle>
            <circle id="Oval-Copy-29" fill="#D8D8D8" cx="1148" cy="721" r="11.5"></circle>
            <circle id="Oval-Copy-30" fill="#D8D8D8" cx="1014" cy="837" r="11.5"></circle>
            <circle id="Oval-Copy-31" fill="#D8D8D8" cx="993.5" cy="898.5" r="20"></circle>
            <circle id="Oval-Copy-38" fill="#D8D8D8" cx="1081.5" cy="428.5" r="20"></circle>
            <circle id="Oval-Copy-32" fill="#D8D8D8" cx="1104" cy="938" r="17.5"></circle>
            <circle id="Oval-Copy-16" fill="#D8D8D8" cx="466.5" cy="583.5" r="36"></circle>
            <circle id="Oval-Copy-34" fill="#D8D8D8" cx="509.5" cy="631.5" r="36"></circle>
            <circle id="Oval-Copy-21" fill="#D8D8D8" cx="409.5" cy="676.5" r="36"></circle>
            <circle id="Oval-Copy-22" fill="#D8D8D8" cx="482.5" cy="683.5" r="36"></circle>
            <circle id="Oval-Copy-40" fill="#D8D8D8" cx="1273.5" cy="200.5" r="36"></circle>
            <circle id="Oval-Copy-6" fill="#D8D8D8" cx="1097.5" cy="132.5" r="15"></circle>
            <circle id="Oval-Copy-39" fill="#D8D8D8" cx="124.5" cy="583.5" r="15"></circle>
            <circle id="Oval-Copy-13" fill="#D8D8D8" cx="999.5" cy="694.5" r="34"></circle>
            <circle id="Oval-Copy-14" fill="#D8D8D8" cx="999.5" cy="694.5" r="26"></circle>
            <circle id="Oval-Copy-10" fill="#D8D8D8" cx="1113.5" cy="514.5" r="15"></circle>
            <circle id="Oval-Copy-9" fill="#D8D8D8" cx="913.5" cy="302.5" r="15"></circle>
            <circle id="Oval-Copy-7" fill="#D8D8D8" cx="1036" cy="216" r="20.5"></circle>
            <circle id="Oval-Copy-2" fill="#D8D8D8" cx="304" cy="90" r="20.5"></circle>
            <circle id="Oval-Copy-3" fill="#D8D8D8" cx="345.5" cy="572.5" r="53"></circle>
            <circle id="Oval-Copy-4" fill="#D8D8D8" cx="355" cy="554" r="17.5"></circle>
        </g>
    </g>
</svg>